# Blender v2.79 (sub 0) OBJ File: ''
# www.blender.org
mtllib Trap.mtl
o Trap_Cone.002
v -2.000000 -0.010606 -0.750000
v -1.853682 -0.010606 -0.735589
v -1.712987 -0.010606 -0.692910
v -1.583322 -0.010606 -0.623602
v -1.469670 -0.010606 -0.530330
v -1.376398 -0.010606 -0.416678
v -1.307090 -0.010606 -0.287013
v -1.264411 -0.010606 -0.146318
v -1.250000 -0.010606 -0.000000
v -1.264411 -0.010606 0.146318
v -1.307090 -0.010606 0.287012
v -1.376398 -0.010606 0.416678
v -1.469670 -0.010606 0.530330
v -1.583322 -0.010606 0.623602
v -1.712988 -0.010606 0.692910
v -1.853682 -0.010606 0.735589
v -2.000000 -0.010606 0.750000
v -2.146318 -0.010606 0.735589
v -2.287013 -0.010606 0.692909
v -2.416678 -0.010606 0.623602
v -2.530330 -0.010606 0.530330
v -2.623602 -0.010606 0.416677
v -2.692910 -0.010606 0.287012
v -2.000000 1.989394 0.000000
v -2.735589 -0.010606 0.146317
v -2.750000 -0.010606 -0.000001
v -2.735589 -0.010606 -0.146319
v -2.692909 -0.010606 -0.287013
v -2.623602 -0.010606 -0.416678
v -2.530329 -0.010606 -0.530331
v -2.416677 -0.010606 -0.623603
v -2.287012 -0.010606 -0.692910
v -2.146317 -0.010606 -0.735589
v 2.000000 -0.010606 -0.750000
v 2.146318 -0.010606 -0.735589
v 2.287013 -0.010606 -0.692910
v 2.416677 -0.010606 -0.623602
v 2.530330 -0.010606 -0.530330
v 2.623602 -0.010606 -0.416678
v 2.692910 -0.010606 -0.287013
v 2.735589 -0.010606 -0.146318
v 2.750000 -0.010606 -0.000000
v 2.735589 -0.010606 0.146318
v 2.692910 -0.010606 0.287012
v 2.623602 -0.010606 0.416678
v 2.530330 -0.010606 0.530330
v 2.416677 -0.010606 0.623602
v 2.287013 -0.010606 0.692910
v 2.146318 -0.010606 0.735589
v 2.000000 -0.010606 0.750000
v 1.853682 -0.010606 0.735589
v 1.712987 -0.010606 0.692909
v 1.583322 -0.010606 0.623602
v 1.469670 -0.010606 0.530330
v 1.376398 -0.010606 0.416677
v 1.307090 -0.010606 0.287012
v 2.000000 1.989394 0.000000
v 1.264411 -0.010606 0.146317
v 1.250000 -0.010606 -0.000001
v 1.264411 -0.010606 -0.146319
v 1.307091 -0.010606 -0.287013
v 1.376398 -0.010606 -0.416678
v 1.469671 -0.010606 -0.530331
v 1.583323 -0.010606 -0.623603
v 1.712988 -0.010606 -0.692910
v 1.853683 -0.010606 -0.735589
v 0.000000 -0.010606 -0.750000
v 0.146318 -0.010606 -0.735589
v 0.287013 -0.010606 -0.692910
v 0.416678 -0.010606 -0.623602
v 0.530330 -0.010606 -0.530330
v 0.623602 -0.010606 -0.416678
v 0.692910 -0.010606 -0.287013
v 0.735589 -0.010606 -0.146318
v 0.750000 -0.010606 -0.000000
v 0.735589 -0.010606 0.146318
v 0.692910 -0.010606 0.287012
v 0.623602 -0.010606 0.416678
v 0.530330 -0.010606 0.530330
v 0.416678 -0.010606 0.623602
v 0.287013 -0.010606 0.692910
v 0.146317 -0.010606 0.735589
v -0.000000 -0.010606 0.750000
v -0.146318 -0.010606 0.735589
v -0.287013 -0.010606 0.692909
v -0.416678 -0.010606 0.623602
v -0.530330 -0.010606 0.530330
v -0.623602 -0.010606 0.416677
v -0.692910 -0.010606 0.287012
v 0.000000 1.989394 0.000000
v -0.735589 -0.010606 0.146317
v -0.750000 -0.010606 -0.000001
v -0.735589 -0.010606 -0.146319
v -0.692909 -0.010606 -0.287013
v -0.623602 -0.010606 -0.416678
v -0.530329 -0.010606 -0.530331
v -0.416677 -0.010606 -0.623603
v -0.287012 -0.010606 -0.692910
v -0.146317 -0.010606 -0.735589
v 0.000000 -0.010606 -2.750000
v 0.146318 -0.010606 -2.735589
v 0.287013 -0.010606 -2.692910
v 0.416678 -0.010606 -2.623602
v 0.530330 -0.010606 -2.530330
v 0.623602 -0.010606 -2.416678
v 0.692910 -0.010606 -2.287013
v 0.735589 -0.010606 -2.146318
v 0.750000 -0.010606 -2.000000
v 0.735589 -0.010606 -1.853682
v 0.692910 -0.010606 -1.712988
v 0.623602 -0.010606 -1.583323
v 0.530330 -0.010606 -1.469670
v 0.416678 -0.010606 -1.376398
v 0.287013 -0.010606 -1.307090
v 0.146317 -0.010606 -1.264411
v -0.000000 -0.010606 -1.250000
v -0.146318 -0.010606 -1.264411
v -0.287013 -0.010606 -1.307091
v -0.416678 -0.010606 -1.376398
v -0.530330 -0.010606 -1.469670
v -0.623602 -0.010606 -1.583323
v -0.692910 -0.010606 -1.712988
v 0.000000 1.989394 -2.000000
v -0.735589 -0.010606 -1.853683
v -0.750000 -0.010606 -2.000001
v -0.735589 -0.010606 -2.146318
v -0.692909 -0.010606 -2.287014
v -0.623602 -0.010606 -2.416678
v -0.530329 -0.010606 -2.530331
v -0.416677 -0.010606 -2.623603
v -0.287012 -0.010606 -2.692910
v -0.146317 -0.010606 -2.735589
v 2.000000 -0.010606 -2.750000
v 2.146318 -0.010606 -2.735589
v 2.287013 -0.010606 -2.692910
v 2.416677 -0.010606 -2.623602
v 2.530330 -0.010606 -2.530330
v 2.623602 -0.010606 -2.416678
v 2.692910 -0.010606 -2.287013
v 2.735589 -0.010606 -2.146318
v 2.750000 -0.010606 -2.000000
v 2.735589 -0.010606 -1.853682
v 2.692910 -0.010606 -1.712988
v 2.623602 -0.010606 -1.583323
v 2.530330 -0.010606 -1.469670
v 2.416677 -0.010606 -1.376398
v 2.287013 -0.010606 -1.307090
v 2.146318 -0.010606 -1.264411
v 2.000000 -0.010606 -1.250000
v 1.853682 -0.010606 -1.264411
v 1.712987 -0.010606 -1.307091
v 1.583322 -0.010606 -1.376398
v 1.469670 -0.010606 -1.469670
v 1.376398 -0.010606 -1.583323
v 1.307090 -0.010606 -1.712988
v 2.000000 1.989394 -2.000000
v 1.264411 -0.010606 -1.853683
v 1.250000 -0.010606 -2.000001
v 1.264411 -0.010606 -2.146318
v 1.307091 -0.010606 -2.287014
v 1.376398 -0.010606 -2.416678
v 1.469671 -0.010606 -2.530331
v 1.583323 -0.010606 -2.623603
v 1.712988 -0.010606 -2.692910
v 1.853683 -0.010606 -2.735589
v -2.000000 -0.010606 -2.750000
v -1.853682 -0.010606 -2.735589
v -1.712987 -0.010606 -2.692910
v -1.583322 -0.010606 -2.623602
v -1.469670 -0.010606 -2.530330
v -1.376398 -0.010606 -2.416678
v -1.307090 -0.010606 -2.287013
v -1.264411 -0.010606 -2.146318
v -1.250000 -0.010606 -2.000000
v -1.264411 -0.010606 -1.853682
v -1.307090 -0.010606 -1.712988
v -1.376398 -0.010606 -1.583323
v -1.469670 -0.010606 -1.469670
v -1.583322 -0.010606 -1.376398
v -1.712988 -0.010606 -1.307090
v -1.853682 -0.010606 -1.264411
v -2.000000 -0.010606 -1.250000
v -2.146318 -0.010606 -1.264411
v -2.287013 -0.010606 -1.307091
v -2.416678 -0.010606 -1.376398
v -2.530330 -0.010606 -1.469670
v -2.623602 -0.010606 -1.583323
v -2.692910 -0.010606 -1.712988
v -2.000000 1.989394 -2.000000
v -2.735589 -0.010606 -1.853683
v -2.750000 -0.010606 -2.000001
v -2.735589 -0.010606 -2.146318
v -2.692909 -0.010606 -2.287014
v -2.623602 -0.010606 -2.416678
v -2.530329 -0.010606 -2.530331
v -2.416677 -0.010606 -2.623603
v -2.287012 -0.010606 -2.692910
v -2.146317 -0.010606 -2.735589
v 2.000000 -0.010606 1.250000
v 2.146318 -0.010606 1.264411
v 2.287013 -0.010606 1.307090
v 2.416677 -0.010606 1.376398
v 2.530330 -0.010606 1.469670
v 2.623602 -0.010606 1.583323
v 2.692910 -0.010606 1.712987
v 2.735589 -0.010606 1.853682
v 2.750000 -0.010606 2.000000
v 2.735589 -0.010606 2.146318
v 2.692910 -0.010606 2.287013
v 2.623602 -0.010606 2.416678
v 2.530330 -0.010606 2.530330
v 2.416677 -0.010606 2.623602
v 2.287013 -0.010606 2.692910
v 2.146318 -0.010606 2.735589
v 2.000000 -0.010606 2.750000
v 1.853682 -0.010606 2.735589
v 1.712987 -0.010606 2.692910
v 1.583322 -0.010606 2.623602
v 1.469670 -0.010606 2.530330
v 1.376398 -0.010606 2.416677
v 1.307090 -0.010606 2.287012
v 2.000000 1.989394 2.000000
v 1.264411 -0.010606 2.146317
v 1.250000 -0.010606 1.999999
v 1.264411 -0.010606 1.853682
v 1.307091 -0.010606 1.712987
v 1.376398 -0.010606 1.583322
v 1.469671 -0.010606 1.469669
v 1.583323 -0.010606 1.376397
v 1.712988 -0.010606 1.307090
v 1.853683 -0.010606 1.264411
v -2.000000 -0.010606 1.250000
v -1.853682 -0.010606 1.264411
v -1.712987 -0.010606 1.307090
v -1.583322 -0.010606 1.376398
v -1.469670 -0.010606 1.469670
v -1.376398 -0.010606 1.583323
v -1.307090 -0.010606 1.712987
v -1.264411 -0.010606 1.853682
v -1.250000 -0.010606 2.000000
v -1.264411 -0.010606 2.146318
v -1.307090 -0.010606 2.287013
v -1.376398 -0.010606 2.416678
v -1.469670 -0.010606 2.530330
v -1.583322 -0.010606 2.623602
v -1.712988 -0.010606 2.692910
v -1.853682 -0.010606 2.735589
v -2.000000 -0.010606 2.750000
v -2.146318 -0.010606 2.735589
v -2.287013 -0.010606 2.692910
v -2.416678 -0.010606 2.623602
v -2.530330 -0.010606 2.530330
v -2.623602 -0.010606 2.416677
v -2.692910 -0.010606 2.287012
v -2.000000 1.989394 2.000000
v -2.735589 -0.010606 2.146317
v -2.750000 -0.010606 1.999999
v -2.735589 -0.010606 1.853682
v -2.692909 -0.010606 1.712987
v -2.623602 -0.010606 1.583322
v -2.530329 -0.010606 1.469669
v -2.416677 -0.010606 1.376397
v -2.287012 -0.010606 1.307090
v -2.146317 -0.010606 1.264411
v 0.000000 -0.010606 1.250000
v 0.146318 -0.010606 1.264411
v 0.287013 -0.010606 1.307090
v 0.416678 -0.010606 1.376398
v 0.530330 -0.010606 1.469670
v 0.623602 -0.010606 1.583323
v 0.692910 -0.010606 1.712987
v 0.735589 -0.010606 1.853682
v 0.750000 -0.010606 2.000000
v 0.735589 -0.010606 2.146318
v 0.692910 -0.010606 2.287013
v 0.623602 -0.010606 2.416678
v 0.530330 -0.010606 2.530330
v 0.416678 -0.010606 2.623602
v 0.287013 -0.010606 2.692910
v 0.146317 -0.010606 2.735589
v -0.000000 -0.010606 2.750000
v -0.146318 -0.010606 2.735589
v -0.287013 -0.010606 2.692910
v -0.416678 -0.010606 2.623602
v -0.530330 -0.010606 2.530330
v -0.623602 -0.010606 2.416677
v -0.692910 -0.010606 2.287012
v 0.000000 1.989394 2.000000
v -0.735589 -0.010606 2.146317
v -0.750000 -0.010606 1.999999
v -0.735589 -0.010606 1.853682
v -0.692909 -0.010606 1.712987
v -0.623602 -0.010606 1.583322
v -0.530329 -0.010606 1.469669
v -0.416677 -0.010606 1.376397
v -0.287012 -0.010606 1.307090
v -0.146317 -0.010606 1.264411
vn 0.0918 0.3496 -0.9324
vn 0.2720 0.3496 -0.8965
vn 0.4416 0.3496 -0.8263
vn 0.5944 0.3496 -0.7242
vn 0.7242 0.3496 -0.5944
vn 0.8263 0.3496 -0.4416
vn 0.8965 0.3496 -0.2720
vn 0.9324 0.3496 -0.0918
vn 0.9324 0.3496 0.0918
vn 0.8965 0.3496 0.2720
vn 0.8263 0.3496 0.4416
vn 0.7242 0.3496 0.5944
vn 0.5944 0.3496 0.7242
vn 0.4416 0.3496 0.8263
vn 0.2720 0.3496 0.8965
vn 0.0918 0.3496 0.9324
vn -0.0918 0.3496 0.9324
vn -0.2720 0.3496 0.8965
vn -0.4416 0.3496 0.8263
vn -0.5944 0.3496 0.7242
vn -0.7242 0.3496 0.5944
vn -0.8263 0.3496 0.4416
vn -0.8965 0.3496 0.2720
vn -0.9324 0.3496 0.0918
vn -0.9324 0.3496 -0.0918
vn -0.8965 0.3496 -0.2720
vn -0.8263 0.3496 -0.4416
vn -0.7242 0.3496 -0.5944
vn -0.5944 0.3496 -0.7242
vn -0.4416 0.3496 -0.8263
vn -0.2720 0.3496 -0.8965
vn -0.0918 0.3496 -0.9324
vn 0.0000 -1.0000 0.0000
usemtl None
s off
f 1//1 24//1 2//1
f 2//2 24//2 3//2
f 3//3 24//3 4//3
f 4//4 24//4 5//4
f 5//5 24//5 6//5
f 6//6 24//6 7//6
f 7//7 24//7 8//7
f 8//8 24//8 9//8
f 9//9 24//9 10//9
f 10//10 24//10 11//10
f 11//11 24//11 12//11
f 12//12 24//12 13//12
f 13//13 24//13 14//13
f 14//14 24//14 15//14
f 15//15 24//15 16//15
f 16//16 24//16 17//16
f 17//17 24//17 18//17
f 18//18 24//18 19//18
f 19//19 24//19 20//19
f 20//20 24//20 21//20
f 21//21 24//21 22//21
f 22//22 24//22 23//22
f 23//23 24//23 25//23
f 25//24 24//24 26//24
f 26//25 24//25 27//25
f 27//26 24//26 28//26
f 28//27 24//27 29//27
f 29//28 24//28 30//28
f 30//29 24//29 31//29
f 31//30 24//30 32//30
f 32//31 24//31 33//31
f 33//32 24//32 1//32
f 1//33 2//33 3//33 4//33 5//33 6//33 7//33 8//33 9//33 10//33 11//33 12//33 13//33 14//33 15//33 16//33 17//33 18//33 19//33 20//33 21//33 22//33 23//33 25//33 26//33 27//33 28//33 29//33 30//33 31//33 32//33 33//33
f 34//1 57//1 35//1
f 35//2 57//2 36//2
f 36//3 57//3 37//3
f 37//4 57//4 38//4
f 38//5 57//5 39//5
f 39//6 57//6 40//6
f 40//7 57//7 41//7
f 41//8 57//8 42//8
f 42//9 57//9 43//9
f 43//10 57//10 44//10
f 44//11 57//11 45//11
f 45//12 57//12 46//12
f 46//13 57//13 47//13
f 47//14 57//14 48//14
f 48//15 57//15 49//15
f 49//16 57//16 50//16
f 50//17 57//17 51//17
f 51//18 57//18 52//18
f 52//19 57//19 53//19
f 53//20 57//20 54//20
f 54//21 57//21 55//21
f 55//22 57//22 56//22
f 56//23 57//23 58//23
f 58//24 57//24 59//24
f 59//25 57//25 60//25
f 60//26 57//26 61//26
f 61//27 57//27 62//27
f 62//28 57//28 63//28
f 63//29 57//29 64//29
f 64//30 57//30 65//30
f 65//31 57//31 66//31
f 66//32 57//32 34//32
f 34//33 35//33 36//33 37//33 38//33 39//33 40//33 41//33 42//33 43//33 44//33 45//33 46//33 47//33 48//33 49//33 50//33 51//33 52//33 53//33 54//33 55//33 56//33 58//33 59//33 60//33 61//33 62//33 63//33 64//33 65//33 66//33
f 67//1 90//1 68//1
f 68//2 90//2 69//2
f 69//3 90//3 70//3
f 70//4 90//4 71//4
f 71//5 90//5 72//5
f 72//6 90//6 73//6
f 73//7 90//7 74//7
f 74//8 90//8 75//8
f 75//9 90//9 76//9
f 76//10 90//10 77//10
f 77//11 90//11 78//11
f 78//12 90//12 79//12
f 79//13 90//13 80//13
f 80//14 90//14 81//14
f 81//15 90//15 82//15
f 82//16 90//16 83//16
f 83//17 90//17 84//17
f 84//18 90//18 85//18
f 85//19 90//19 86//19
f 86//20 90//20 87//20
f 87//21 90//21 88//21
f 88//22 90//22 89//22
f 89//23 90//23 91//23
f 91//24 90//24 92//24
f 92//25 90//25 93//25
f 93//26 90//26 94//26
f 94//27 90//27 95//27
f 95//28 90//28 96//28
f 96//29 90//29 97//29
f 97//30 90//30 98//30
f 98//31 90//31 99//31
f 99//32 90//32 67//32
f 67//33 68//33 69//33 70//33 71//33 72//33 73//33 74//33 75//33 76//33 77//33 78//33 79//33 80//33 81//33 82//33 83//33 84//33 85//33 86//33 87//33 88//33 89//33 91//33 92//33 93//33 94//33 95//33 96//33 97//33 98//33 99//33
f 100//1 123//1 101//1
f 101//2 123//2 102//2
f 102//3 123//3 103//3
f 103//4 123//4 104//4
f 104//5 123//5 105//5
f 105//6 123//6 106//6
f 106//7 123//7 107//7
f 107//8 123//8 108//8
f 108//9 123//9 109//9
f 109//10 123//10 110//10
f 110//11 123//11 111//11
f 111//12 123//12 112//12
f 112//13 123//13 113//13
f 113//14 123//14 114//14
f 114//15 123//15 115//15
f 115//16 123//16 116//16
f 116//17 123//17 117//17
f 117//18 123//18 118//18
f 118//19 123//19 119//19
f 119//20 123//20 120//20
f 120//21 123//21 121//21
f 121//22 123//22 122//22
f 122//23 123//23 124//23
f 124//24 123//24 125//24
f 125//25 123//25 126//25
f 126//26 123//26 127//26
f 127//27 123//27 128//27
f 128//28 123//28 129//28
f 129//29 123//29 130//29
f 130//30 123//30 131//30
f 131//31 123//31 132//31
f 132//32 123//32 100//32
f 100//33 101//33 102//33 103//33 104//33 105//33 106//33 107//33 108//33 109//33 110//33 111//33 112//33 113//33 114//33 115//33 116//33 117//33 118//33 119//33 120//33 121//33 122//33 124//33 125//33 126//33 127//33 128//33 129//33 130//33 131//33 132//33
f 133//1 156//1 134//1
f 134//2 156//2 135//2
f 135//3 156//3 136//3
f 136//4 156//4 137//4
f 137//5 156//5 138//5
f 138//6 156//6 139//6
f 139//7 156//7 140//7
f 140//8 156//8 141//8
f 141//9 156//9 142//9
f 142//10 156//10 143//10
f 143//11 156//11 144//11
f 144//12 156//12 145//12
f 145//13 156//13 146//13
f 146//14 156//14 147//14
f 147//15 156//15 148//15
f 148//16 156//16 149//16
f 149//17 156//17 150//17
f 150//18 156//18 151//18
f 151//19 156//19 152//19
f 152//20 156//20 153//20
f 153//21 156//21 154//21
f 154//22 156//22 155//22
f 155//23 156//23 157//23
f 157//24 156//24 158//24
f 158//25 156//25 159//25
f 159//26 156//26 160//26
f 160//27 156//27 161//27
f 161//28 156//28 162//28
f 162//29 156//29 163//29
f 163//30 156//30 164//30
f 164//31 156//31 165//31
f 165//32 156//32 133//32
f 133//33 134//33 135//33 136//33 137//33 138//33 139//33 140//33 141//33 142//33 143//33 144//33 145//33 146//33 147//33 148//33 149//33 150//33 151//33 152//33 153//33 154//33 155//33 157//33 158//33 159//33 160//33 161//33 162//33 163//33 164//33 165//33
f 166//1 189//1 167//1
f 167//2 189//2 168//2
f 168//3 189//3 169//3
f 169//4 189//4 170//4
f 170//5 189//5 171//5
f 171//6 189//6 172//6
f 172//7 189//7 173//7
f 173//8 189//8 174//8
f 174//9 189//9 175//9
f 175//10 189//10 176//10
f 176//11 189//11 177//11
f 177//12 189//12 178//12
f 178//13 189//13 179//13
f 179//14 189//14 180//14
f 180//15 189//15 181//15
f 181//16 189//16 182//16
f 182//17 189//17 183//17
f 183//18 189//18 184//18
f 184//19 189//19 185//19
f 185//20 189//20 186//20
f 186//21 189//21 187//21
f 187//22 189//22 188//22
f 188//23 189//23 190//23
f 190//24 189//24 191//24
f 191//25 189//25 192//25
f 192//26 189//26 193//26
f 193//27 189//27 194//27
f 194//28 189//28 195//28
f 195//29 189//29 196//29
f 196//30 189//30 197//30
f 197//31 189//31 198//31
f 198//32 189//32 166//32
f 166//33 167//33 168//33 169//33 170//33 171//33 172//33 173//33 174//33 175//33 176//33 177//33 178//33 179//33 180//33 181//33 182//33 183//33 184//33 185//33 186//33 187//33 188//33 190//33 191//33 192//33 193//33 194//33 195//33 196//33 197//33 198//33
f 199//1 222//1 200//1
f 200//2 222//2 201//2
f 201//3 222//3 202//3
f 202//4 222//4 203//4
f 203//5 222//5 204//5
f 204//6 222//6 205//6
f 205//7 222//7 206//7
f 206//8 222//8 207//8
f 207//9 222//9 208//9
f 208//10 222//10 209//10
f 209//11 222//11 210//11
f 210//12 222//12 211//12
f 211//13 222//13 212//13
f 212//14 222//14 213//14
f 213//15 222//15 214//15
f 214//16 222//16 215//16
f 215//17 222//17 216//17
f 216//18 222//18 217//18
f 217//19 222//19 218//19
f 218//20 222//20 219//20
f 219//21 222//21 220//21
f 220//22 222//22 221//22
f 221//23 222//23 223//23
f 223//24 222//24 224//24
f 224//25 222//25 225//25
f 225//26 222//26 226//26
f 226//27 222//27 227//27
f 227//28 222//28 228//28
f 228//29 222//29 229//29
f 229//30 222//30 230//30
f 230//31 222//31 231//31
f 231//32 222//32 199//32
f 199//33 200//33 201//33 202//33 203//33 204//33 205//33 206//33 207//33 208//33 209//33 210//33 211//33 212//33 213//33 214//33 215//33 216//33 217//33 218//33 219//33 220//33 221//33 223//33 224//33 225//33 226//33 227//33 228//33 229//33 230//33 231//33
f 232//1 255//1 233//1
f 233//2 255//2 234//2
f 234//3 255//3 235//3
f 235//4 255//4 236//4
f 236//5 255//5 237//5
f 237//6 255//6 238//6
f 238//7 255//7 239//7
f 239//8 255//8 240//8
f 240//9 255//9 241//9
f 241//10 255//10 242//10
f 242//11 255//11 243//11
f 243//12 255//12 244//12
f 244//13 255//13 245//13
f 245//14 255//14 246//14
f 246//15 255//15 247//15
f 247//16 255//16 248//16
f 248//17 255//17 249//17
f 249//18 255//18 250//18
f 250//19 255//19 251//19
f 251//20 255//20 252//20
f 252//21 255//21 253//21
f 253//22 255//22 254//22
f 254//23 255//23 256//23
f 256//24 255//24 257//24
f 257//25 255//25 258//25
f 258//26 255//26 259//26
f 259//27 255//27 260//27
f 260//28 255//28 261//28
f 261//29 255//29 262//29
f 262//30 255//30 263//30
f 263//31 255//31 264//31
f 264//32 255//32 232//32
f 232//33 233//33 234//33 235//33 236//33 237//33 238//33 239//33 240//33 241//33 242//33 243//33 244//33 245//33 246//33 247//33 248//33 249//33 250//33 251//33 252//33 253//33 254//33 256//33 257//33 258//33 259//33 260//33 261//33 262//33 263//33 264//33
f 265//1 288//1 266//1
f 266//2 288//2 267//2
f 267//3 288//3 268//3
f 268//4 288//4 269//4
f 269//5 288//5 270//5
f 270//6 288//6 271//6
f 271//7 288//7 272//7
f 272//8 288//8 273//8
f 273//9 288//9 274//9
f 274//10 288//10 275//10
f 275//11 288//11 276//11
f 276//12 288//12 277//12
f 277//13 288//13 278//13
f 278//14 288//14 279//14
f 279//15 288//15 280//15
f 280//16 288//16 281//16
f 281//17 288//17 282//17
f 282//18 288//18 283//18
f 283//19 288//19 284//19
f 284//20 288//20 285//20
f 285//21 288//21 286//21
f 286//22 288//22 287//22
f 287//23 288//23 289//23
f 289//24 288//24 290//24
f 290//25 288//25 291//25
f 291//26 288//26 292//26
f 292//27 288//27 293//27
f 293//28 288//28 294//28
f 294//29 288//29 295//29
f 295//30 288//30 296//30
f 296//31 288//31 297//31
f 297//32 288//32 265//32
f 265//33 266//33 267//33 268//33 269//33 270//33 271//33 272//33 273//33 274//33 275//33 276//33 277//33 278//33 279//33 280//33 281//33 282//33 283//33 284//33 285//33 286//33 287//33 289//33 290//33 291//33 292//33 293//33 294//33 295//33 296//33 297//33
